HIERARCHY
ROOT Hips
{
	OFFSET 0.000000 0.000000 0.000000 
	CHANNELS 6 Xposition Yposition Zposition Yrotation Zrotation Xrotation 
	JOINT Lumbar
	{
		OFFSET 0.000000 0.000000 0.000000 
		CHANNELS 3 Zrotation Xrotation Yrotation
		JOINT Neck
		{
			OFFSET 0.000000 0.445665 0.000000 
			CHANNELS 3 Zrotation Xrotation Yrotation
			End Site
			{
				OFFSET 0.000000 0.227535 0.000000 
			}
		}
		JOINT RightShoulder
		{
			OFFSET 0.019635 0.377685 0.194865 
			CHANNELS 3 Zrotation Xrotation Yrotation
			JOINT RightElbow
			{
				OFFSET 0.000000 -0.243375 0.000000 
				CHANNELS 2 Zrotation Yrotation
				JOINT RightWrist
				{
					OFFSET 0.000000 -0.264825 0.000000 
					CHANNELS 2 Zrotation Xrotation
					End Site
					{
						OFFSET 0.006600 -0.176220 0.000990 
					}
				}
			}
		}
		JOINT LeftShoulder
		{
			OFFSET 0.019635 0.377685 -0.194865 
			CHANNELS 3 Zrotation Xrotation Yrotation
			JOINT LeftElbow
			{
				OFFSET 0.000000 -0.243375 0.000000 
				CHANNELS 2 Zrotation Yrotation
				JOINT LeftWrist
				{
					OFFSET 0.000000 -0.264825 0.000000 
					CHANNELS 2 Zrotation Xrotation
					End Site
					{
						OFFSET 0.006600 -0.176220 -0.000990 
					}
				}
			}
		}
	}
	JOINT RightHip
	{
		OFFSET 0.052140 -0.069960 0.075570 
		CHANNELS 3 Zrotation Xrotation Yrotation
		JOINT RightKnee
		{
			OFFSET 0.000000 -0.402270 0.000000 
			CHANNELS 1 Zrotation
			JOINT RightAnkle
			{
				OFFSET 0.000000 -0.404085 0.000000 
				CHANNELS 3 Zrotation Xrotation Yrotation
				End Site
				{
					OFFSET 0.204105 -0.089430 0.008415 
				}
			}
		}
	}
	JOINT LeftHip
	{
		OFFSET 0.052140 -0.069960 -0.075570 
		CHANNELS 3 Zrotation Xrotation Yrotation
		JOINT LeftKnee
		{
			OFFSET 0.000000 -0.402270 0.000000 
			CHANNELS 1 Zrotation
			JOINT LeftAnkle
			{
				OFFSET 0.000000 -0.404085 0.000000 
				CHANNELS 3 Zrotation Xrotation Yrotation
				End Site
				{
					OFFSET 0.204105 -0.089430 -0.008415 
				}
			}
		}
	}
}
MOTION
Frames: 35
Frame Time: 0.02
-0.1597 0.95892 0.0383 183.89207 0 -8.0838 -4.57908 -7.72416 1.56026 -13.74616 3.89204 2.6754 82.38667 -71.81058 -1.63077 35.6702 98.16725 5.71452 5.77919 16.5353 22.02979 9.46906 23.91073 -89.95792 -16.99619 5.23235 -0.67715 2.46002 -3.99169 -16.03292 -3.43142 -1.09508 2.25095 6.28638 8.34111 -7.61835 -21.97619 9.26112 1.94336 0.6551
-0.16098 0.95884 0.04124 183.48218 0 -8.51191 -4.59317 -7.92846 1.54677 -13.94285 3.95491 2.75848 82.41449 -72.04073 -1.72425 35.56515 98.36352 5.75577 5.8177 15.94705 22.25132 10.15017 23.52243 -89.42035 -16.5572 5.04147 -0.35556 2.53764 -4.11175 -16.47541 -3.7804 -0.96553 3.05443 6.51835 8.59939 -7.3764 -22.7422 9.68542 2.02451 0.7579
-0.16215 0.95857 0.04418 183.0722 0 -8.89728 -4.60753 -8.10968 1.5168 -14.13336 3.99824 2.79861 82.49001 -72.1591 -1.58861 35.38727 98.53322 5.90331 5.75757 15.36124 22.46654 10.71389 22.97948 -88.75458 -15.88041 4.79377 -0.08645 2.5936 -4.1719 -16.80816 -4.09778 -0.86814 3.74848 6.77676 8.83107 -7.06739 -23.53393 10.11505 2.06566 0.77779
-0.16336 0.95838 0.04714 182.66557 0 -9.29516 -4.61949 -8.29995 1.49527 -14.33112 4.04832 2.86011 82.5439 -72.32612 -1.56356 35.24979 98.71342 6.00003 5.7437 14.79107 22.67879 11.317 22.49993 -88.13091 -15.30989 4.57225 0.2007 2.65687 -4.24711 -17.18328 -4.42269 -0.75866 4.47392 7.01778 9.0669 -6.79261 -24.30255 10.53715 2.12734 0.83895
-0.16458 0.95822 0.05004 182.24177 0 -9.72441 -4.64185 -8.49542 1.4699 -14.51007 4.1076 2.91545 82.56907 -72.50306 -1.523 35.09141 98.89749 6.10629 5.72406 14.1469 22.91627 11.97653 22.04276 -87.55491 -14.73895 4.34841 0.51503 2.73223 -4.37595 -17.59244 -4.77814 -0.63715 5.28433 7.28204 9.33905 -6.50066 -25.12111 10.98209 2.18025 0.88639
-0.16577 0.95796 0.05305 181.85511 0 -10.07737 -4.64226 -8.67428 1.4486 -14.72646 4.14358 2.97284 82.67855 -72.63235 -1.45303 34.95427 99.06902 6.21813 5.69333 13.65873 23.09819 12.49304 21.50572 -86.85921 -14.11665 4.11627 0.75892 2.77673 -4.37896 -17.90289 -5.06248 -0.54885 5.88927 7.50372 9.52832 -6.22897 -25.84035 11.37981 2.24138 0.94188
-0.16694 0.95746 0.05633 181.56905 0 -10.2296 -4.5829 -8.82067 1.44196 -15.0512 4.11272 3.04566 82.9803 -72.6587 -1.39333 34.90902 99.20276 6.32166 5.65126 13.6005 23.14431 12.62486 20.77526 -85.83827 -13.39656 3.87474 0.82525 2.74114 -4.03695 -17.97803 -5.14976 -0.5445 5.94825 7.60422 9.49306 -6.03089 -26.28792 11.65101 2.33635 1.04326
-0.16808 0.95689 0.05972 181.32131 0 -10.30626 -4.50125 -8.94989 1.44003 -15.41306 4.06023 3.12183 83.37308 -72.64063 -1.3051 34.88414 99.32663 6.42665 5.6024 13.69961 23.13201 12.61982 19.97298 -84.70906 -12.63674 3.62722 0.82139 2.67506 -3.57209 -17.95553 -5.1677 -0.57265 5.80392 7.66035 9.37523 -5.85564 -26.63278 11.87336 2.44059 1.15481
-0.16923 0.95636 0.06305 181.05751 0 -10.41767 -4.42899 -9.08215 1.43634 -15.75598 4.02243 3.19681 83.74838 -72.64187 -1.20417 34.8379 99.4619 6.52995 5.55956 13.7274 23.13582 12.69035 19.21084 -83.64866 -11.9051 3.38253 0.84663 2.62286 -3.17114 -17.97062 -5.22265 -0.58601 5.75527 7.73486 9.2963 -5.66906 -27.01886 12.11467 2.53957 1.25929
-0.17041 0.95577 0.06641 180.78725 0 -10.52618 -4.35955 -9.23379 1.43063 -16.10824 3.96384 3.26925 84.02911 -72.64276 -1.19959 34.83803 99.56797 6.64223 5.50032 13.75478 23.1828 12.70255 18.40977 -82.49932 -11.12158 3.13454 0.88194 2.56986 -2.73442 -18.0103 -5.25369 -0.60051 5.68979 7.81785 9.21094 -5.48344 -27.42929 12.37016 2.64159 1.37119
-0.17152 0.9553 0.06973 180.54041 0 -10.62298 -4.27937 -9.34116 1.43026 -16.44891 3.9432 3.34791 84.52153 -72.63552 -0.99575 34.75024 99.73169 6.73358 5.47562 13.81994 23.12691 12.80246 17.67697 -81.51294 -10.44069 2.89381 0.88024 2.51152 -2.34332 -17.9773 -5.31803 -0.62001 5.61159 7.87229 9.11939 -5.30302 -27.76376 12.58408 2.73997 1.47119
-0.17249 0.95517 0.07293 180.34173 0 -10.70875 -4.17126 -9.33183 1.44515 -16.75732 4.03664 3.44679 85.63276 -72.61506 -0.20328 34.38938 100.06645 6.77676 5.54203 13.95474 22.79423 13.20277 17.13223 -80.98978 -10.04709 2.66577 0.79397 2.44618 -2.11255 -17.76554 -5.49477 -0.64458 5.55554 7.85873 9.03356 -5.12393 -27.91771 12.69794 2.82624 1.53539
-0.1734 0.95516 0.07607 180.16669 0 -10.78494 -4.05382 -9.27846 1.46501 -17.05116 4.16841 3.5513 86.94369 -72.58875 0.7797 33.94417 100.45743 6.79655 5.64478 14.12152 22.36148 13.692 16.66276 -80.63732 -9.76049 2.44718 0.6731 2.37656 -1.93143 -17.48503 -5.7068 -0.67308 5.49266 7.81787 8.94399 -4.95087 -27.9978 12.77106 2.90852 1.58759
-0.17433 0.95509 0.07923 179.98549 0 -10.86394 -3.94306 -9.24447 1.48162 -17.34599 4.28003 3.65093 88.12529 -72.56685 1.64389 33.55484 100.81725 6.81984 5.73561 14.27098 21.97906 14.12504 16.1715 -80.21635 -9.42991 2.23037 0.56798 2.3088 -1.72504 -17.23769 -5.9007 -0.70015 5.42874 7.78938 8.85453 -4.78048 -28.10894 12.86098 2.99295 1.64623
-0.17531 0.95503 0.08245 179.78613 0 -10.94706 -3.82113 -9.21239 1.50263 -17.66602 4.40223 3.76052 89.47083 -72.53626 2.64292 33.09309 101.20245 6.87293 5.80777 14.43717 21.57374 14.62015 15.62544 -79.75406 -9.07806 1.98771 0.46006 2.24028 -1.52567 -16.97831 -6.10146 -0.7268 5.37588 7.75943 8.76884 -4.58863 -28.22732 12.95651 3.077 1.70175
-0.17617 0.95498 0.08551 179.62988 0 -11.01996 -3.72069 -9.16629 1.51552 -17.92941 4.512 3.85058 90.52379 -72.52259 3.40882 32.76063 101.54566 6.8589 5.92624 14.57474 21.19358 15.00851 15.21205 -79.41876 -8.79663 1.80118 0.35092 2.17276 -1.32518 -16.72949 -6.29662 -0.75489 5.30013 7.72669 8.67557 -4.44185 -28.31416 13.03122 3.15985 1.75987
-0.17677 0.95496 0.0882 179.5854 0 -11.07042 -3.68072 -9.09052 1.50549 -18.04139 4.57602 3.88603 90.69555 -72.56078 3.45806 32.81689 101.78236 6.66077 6.17481 14.61898 20.90401 15.08444 15.15017 -79.40239 -8.68309 1.76778 0.24521 2.10875 -1.10967 -16.52309 -6.47311 -0.78518 5.17198 7.69232 8.56189 -4.42531 -28.33425 13.05948 3.2487 1.83649
-0.17726 0.95496 0.09072 179.58363 0 -11.1106 -3.66308 -9.00257 1.48695 -18.09632 4.62656 3.90148 90.56928 -72.61583 3.27019 33.00419 101.97106 6.397 6.46659 14.63377 20.64436 15.04982 15.21899 -79.5068 -8.63717 1.79052 0.14018 2.04598 -0.89218 -16.33096 -6.64201 -0.81674 5.02067 7.65635 8.44105 -4.45285 -28.32504 13.06814 3.33516 1.91486
-0.17778 0.95494 0.0933 179.56305 0 -11.15375 -3.636 -8.92139 1.47183 -18.17634 4.68489 3.92564 90.59609 -72.66085 3.20875 33.12387 102.16596 6.16586 6.73144 14.6655 20.37324 15.06386 15.2259 -79.54962 -8.56063 1.7873 0.0362 1.98317 -0.67569 -16.13504 -6.81127 -0.84815 4.87466 7.62183 8.32435 -4.45481 -28.32846 13.08543 3.41682 1.98643
-0.17836 0.95494 0.09596 179.54057 0 -11.20402 -3.60538 -8.8334 1.45881 -18.25977 4.73807 3.95166 90.55882 -72.71527 3.07776 33.2739 102.42675 5.92096 7.02871 14.68336 20.08873 15.08758 15.24568 -79.6258 -8.48678 1.78624 -0.07502 1.91853 -0.45926 -15.92492 -6.99505 -0.87808 4.74915 7.58357 8.20434 -4.47879 -28.33284 13.10282 3.522 2.08155
-0.1788 0.95491 0.09842 179.53215 0 -11.23675 -3.58783 -8.75732 1.43929 -18.32226 4.79756 3.96891 90.57738 -72.75463 3.02956 33.39391 102.54067 5.69087 7.26777 14.72276 19.84165 15.06372 15.26914 -79.65998 -8.42268 1.79395 -0.17024 1.85739 -0.24308 -15.74915 -7.14597 -0.91114 4.57706 7.5527 8.0888 -4.46935 -28.32835 13.11543 3.57918 2.12992
-0.1789 0.95484 0.10037 179.54976 0 -11.2273 -3.59863 -8.71691 1.40436 -18.34506 4.8838 3.96737 90.858 -72.74471 3.29476 33.39102 102.23912 5.50545 7.33958 14.82768 19.68147 14.93524 15.26698 -79.5393 -8.36286 1.81157 -0.22315 1.8115 -0.01509 -15.66188 -7.21112 -0.95405 4.26845 7.54604 7.99434 -4.33885 -28.31453 13.12382 3.49115 2.03365
-0.17887 0.95476 0.10212 179.58033 0 -11.19993 -3.62228 -8.68909 1.3631 -18.34809 4.97552 3.95757 91.19732 -72.71976 3.64529 33.35534 101.79535 5.33952 7.35052 14.95533 19.56012 14.76218 15.26442 -79.37304 -8.31116 1.83615 -0.25917 1.76817 0.21057 -15.61016 -7.24273 -0.99982 3.9158 7.54636 7.90341 -4.17633 -28.29166 13.1275 3.3572 1.89298
-0.17888 0.95468 0.10396 179.60643 0 -11.17836 -3.64163 -8.65596 1.32436 -18.35749 5.06063 3.95119 91.48606 -72.70408 3.9385 33.34024 101.43043 5.17295 7.38631 15.07317 19.42751 14.60949 15.26409 -79.23295 -8.25916 1.85784 -0.30203 1.71966 0.42878 -15.54366 -7.28749 -1.04321 3.59295 7.54139 7.80621 -4.04045 -28.26806 13.13082 3.25325 1.78279
-0.17894 0.9546 0.10583 179.62819 0 -11.16628 -3.65528 -8.62097 1.28667 -18.37582 5.16281 3.94555 91.86634 -72.67869 4.30274 33.30551 101.00318 4.96973 7.43494 15.18781 19.269 14.45311 15.25946 -79.07428 -8.19513 1.88029 -0.34971 1.68756 0.68218 -15.46943 -7.34082 -1.09099 3.23022 7.54531 7.72815 -3.8558 -28.26386 13.14403 3.11149 1.6298
-0.17888 0.95451 0.10758 179.66133 0 -11.13037 -3.68351 -8.59258 1.24561 -18.37174 5.23075 3.93664 92.07266 -72.66972 4.54125 33.3024 100.67344 4.84791 7.44249 15.31488 19.17316 14.29451 15.26233 -78.94172 -8.15738 1.90217 -0.3817 1.62258 0.86266 -15.42257 -7.36847 -1.13054 2.9376 7.53236 7.61151 -3.76366 -28.21748 13.13573 3.03657 1.55459
-0.17851 0.95439 0.10907 179.72414 0 -11.03255 -3.74959 -8.58297 1.19482 -18.30934 5.20425 3.92087 91.79487 -72.70945 4.42232 33.39218 100.64023 4.95016 7.34514 15.47054 19.24185 14.14754 15.28216 -78.893 -8.18814 1.91965 -0.38759 1.46043 0.83389 -15.41836 -7.33321 -1.14446 2.87261 7.47148 7.38477 -3.942 -28.05704 13.06966 3.16603 1.7116
-0.17803 0.95425 0.11045 179.79762 0 -10.91155 -3.82978 -8.57893 1.14105 -18.22545 5.14299 3.902 91.33967 -72.76599 4.1733 33.51469 100.71132 5.13317 7.20941 15.63788 19.37187 13.99917 15.30963 -78.8714 -8.24506 1.93625 -0.37524 1.26639 0.73316 -15.44591 -7.27358 -1.15044 2.87493 7.39327 7.11976 -4.21272 -27.85443 12.98205 3.36255 1.94683
-0.1776 0.95411 0.11188 179.86487 0 -10.80149 -3.90273 -8.57005 1.09023 -18.15266 5.09661 3.88477 90.95998 -72.81525 3.97783 33.62321 100.74037 5.27694 7.09533 15.80035 19.47312 13.84744 15.3354 -78.83634 -8.29104 1.95372 -0.36335 1.09042 0.67124 -15.47351 -7.22497 -1.16141 2.83199 7.3228 6.87387 -4.43657 -27.67135 12.9042 3.52305 2.14239
-0.17715 0.95397 0.11331 179.93781 0 -10.68893 -3.9791 -8.57145 1.03333 -18.07401 5.05385 3.86696 90.60298 -72.86336 3.80794 33.72704 100.74345 5.43231 6.96185 15.96257 19.57984 13.71082 15.35364 -78.80451 -8.33349 1.96949 -0.38625 0.89851 0.58442 -15.43719 -7.17443 -1.16645 2.85169 7.25331 6.62018 -4.68111 -27.48707 12.82658 3.70623 2.3553
-0.17674 0.95385 0.11472 180.00206 0 -10.57651 -4.0522 -8.55247 0.98736 -18.0021 4.99577 3.84887 90.15683 -72.91693 3.55376 33.84868 100.82518 5.58216 6.8599 16.12674 19.68886 13.54318 15.38954 -78.77303 -8.38919 1.98847 -0.32967 0.73335 0.53116 -15.54613 -7.12379 -1.18219 2.75467 7.17737 6.37436 -4.90345 -27.29456 12.74307 3.85761 2.54938
-0.1765 0.9538 0.11615 180.03282 0 -10.46867 -4.10698 -8.47679 0.98204 -17.95996 4.89899 3.83804 89.49919 -72.99146 3.08977 34.01292 101.11713 5.69932 6.85937 16.30278 19.79244 13.28868 15.47073 -78.73538 -8.47691 2.01677 -0.0831 0.64002 0.59833 -16.00471 -7.06833 -1.22692 2.34367 7.08984 6.15311 -5.05501 -27.09731 12.65194 3.91447 2.68874
-0.17632 0.95379 0.11757 180.05576 0 -10.36222 -4.15899 -8.38007 0.98613 -17.92449 4.78879 3.82569 88.75904 -73.06931 2.54639 34.19399 101.48183 5.80752 6.89135 16.47875 19.89556 13.00334 15.56975 -78.6975 -8.57676 2.04825 0.24722 0.57656 0.69957 -16.61584 -7.01556 -1.28305 1.80893 6.99618 5.9423 -5.17915 -26.89224 12.5552 3.93564 2.80391
-0.17611 0.95377 0.11898 180.08663 0 -10.25612 -4.21608 -8.29242 0.97949 -17.88204 4.68806 3.80935 88.06248 -73.13894 2.04519 34.36643 101.80184 5.91834 6.90541 16.64825 19.99645 12.73367 15.66165 -78.66023 -8.66967 2.07807 0.55579 0.50585 0.77892 -17.18631 -6.96891 -1.33571 1.31424 6.90383 5.73095 -5.30688 -26.68529 12.45865 3.96676 2.91927
-0.17593 0.9537 0.12044 180.09914 0 -10.14478 -4.25765 -8.20744 0.99966 -17.85498 4.5723 3.81279 87.33522 -73.2367 1.51501 34.5436 102.17473 6.03852 6.93109 16.84471 20.10933 12.45782 15.74957 -78.62157 -8.76915 2.10872 0.79701 0.40727 0.88398 -17.6391 -6.89122 -1.38128 0.88835 6.81648 5.50049 -5.47361 -26.49821 12.37064 4.02579 3.08173
